<mxfile host="app.diagrams.net" modified="2022-03-19T15:52:35.660Z" agent="5.0 (Windows NT 10.0; Win64; x64) AppleWebKit/537.36 (KHTML, like Gecko) Chrome/99.0.4844.74 Safari/537.36" etag="1YnNGb5mf-sl3zlRDMgD" version="17.1.3" type="github">
  <diagram id="uJGwPPdDTHX9QC8XKyuE" name="Page-1">
    <mxGraphModel dx="2430" dy="1947" grid="1" gridSize="10" guides="1" tooltips="1" connect="1" arrows="1" fold="1" page="1" pageScale="1" pageWidth="850" pageHeight="1100" math="0" shadow="0">
      <root>
        <mxCell id="0" />
        <mxCell id="1" parent="0" />
        <mxCell id="yKrnhrEs9fii8439QQP5-1" value="Health&amp;nbsp; Insurance Management System" style="shape=umlFrame;whiteSpace=wrap;html=1;width=120;height=60;" parent="1" vertex="1">
          <mxGeometry x="-450" y="-230" width="1320" height="1750" as="geometry" />
        </mxCell>
        <mxCell id="yKrnhrEs9fii8439QQP5-2" value="" style="ellipse;whiteSpace=wrap;html=1;rounded=0;shadow=1;comic=0;labelBackgroundColor=none;strokeWidth=1;fontFamily=Verdana;fontSize=12;align=center;" parent="1" vertex="1">
          <mxGeometry x="1595" y="525" width="150" height="90" as="geometry" />
        </mxCell>
        <mxCell id="yKrnhrEs9fii8439QQP5-3" value="System Admin" style="shape=umlActor;verticalLabelPosition=bottom;verticalAlign=top;html=1;outlineConnect=0;" parent="1" vertex="1">
          <mxGeometry x="1440" y="750" width="30" height="60" as="geometry" />
        </mxCell>
        <mxCell id="yKrnhrEs9fii8439QQP5-4" value="&amp;lt;Include&amp;gt;" style="text;html=1;strokeColor=none;fillColor=none;align=center;verticalAlign=middle;whiteSpace=wrap;rounded=0;" parent="1" vertex="1">
          <mxGeometry x="2089" y="555" width="60" height="30" as="geometry" />
        </mxCell>
        <mxCell id="yKrnhrEs9fii8439QQP5-5" value="Fill Details" style="ellipse;whiteSpace=wrap;html=1;rounded=0;shadow=1;comic=0;labelBackgroundColor=none;strokeWidth=1;fontFamily=Verdana;fontSize=12;align=center;" parent="1" vertex="1">
          <mxGeometry x="1930" y="90" width="120" height="70" as="geometry" />
        </mxCell>
        <mxCell id="yKrnhrEs9fii8439QQP5-6" value="" style="endArrow=classic;html=1;rounded=0;dashed=1;entryX=0.052;entryY=0.805;entryDx=0;entryDy=0;entryPerimeter=0;" parent="1" source="yKrnhrEs9fii8439QQP5-5" target="yKrnhrEs9fii8439QQP5-52" edge="1">
          <mxGeometry width="50" height="50" relative="1" as="geometry">
            <mxPoint x="610" y="120" as="sourcePoint" />
            <mxPoint x="1990" y="260" as="targetPoint" />
            <Array as="points" />
          </mxGeometry>
        </mxCell>
        <mxCell id="yKrnhrEs9fii8439QQP5-7" value="" style="endArrow=classic;html=1;rounded=0;dashed=1;exitX=0.696;exitY=0.998;exitDx=0;exitDy=0;exitPerimeter=0;entryX=0.028;entryY=0.301;entryDx=0;entryDy=0;entryPerimeter=0;" parent="1" source="yKrnhrEs9fii8439QQP5-5" target="yKrnhrEs9fii8439QQP5-56" edge="1">
          <mxGeometry width="50" height="50" relative="1" as="geometry">
            <mxPoint x="722.6765302382273" y="254.66298086263123" as="sourcePoint" />
            <mxPoint x="1860" y="470" as="targetPoint" />
            <Array as="points" />
          </mxGeometry>
        </mxCell>
        <mxCell id="yKrnhrEs9fii8439QQP5-8" value="&amp;lt;Include&amp;gt;" style="text;html=1;strokeColor=none;fillColor=none;align=center;verticalAlign=middle;whiteSpace=wrap;rounded=0;" parent="1" vertex="1">
          <mxGeometry x="1803.75" y="-31.5" width="60" height="30" as="geometry" />
        </mxCell>
        <mxCell id="yKrnhrEs9fii8439QQP5-9" value="Visitor" style="shape=umlActor;verticalLabelPosition=bottom;verticalAlign=top;html=1;outlineConnect=0;" parent="1" vertex="1">
          <mxGeometry x="2840" y="80" width="30" height="60" as="geometry" />
        </mxCell>
        <mxCell id="yKrnhrEs9fii8439QQP5-10" value="" style="ellipse;whiteSpace=wrap;html=1;rounded=0;shadow=1;comic=0;labelBackgroundColor=none;strokeWidth=1;fontFamily=Verdana;fontSize=12;align=center;" parent="1" vertex="1">
          <mxGeometry x="2560" y="-193" width="210" height="93" as="geometry" />
        </mxCell>
        <mxCell id="yKrnhrEs9fii8439QQP5-12" value="&lt;span style=&quot;font-family: &amp;#34;verdana&amp;#34;&quot;&gt;Register To the System&lt;/span&gt;" style="text;html=1;strokeColor=none;fillColor=none;align=center;verticalAlign=middle;whiteSpace=wrap;rounded=0;" parent="1" vertex="1">
          <mxGeometry x="2620" y="-180" width="90" height="30" as="geometry" />
        </mxCell>
        <mxCell id="yKrnhrEs9fii8439QQP5-13" value="" style="endArrow=none;html=1;rounded=0;exitX=0;exitY=0.5;exitDx=0;exitDy=0;entryX=1;entryY=0.5;entryDx=0;entryDy=0;" parent="1" edge="1">
          <mxGeometry width="50" height="50" relative="1" as="geometry">
            <mxPoint x="2566" y="-148" as="sourcePoint" />
            <mxPoint x="2766" y="-147.5" as="targetPoint" />
          </mxGeometry>
        </mxCell>
        <mxCell id="yKrnhrEs9fii8439QQP5-14" value="Enter Details" style="ellipse;whiteSpace=wrap;html=1;rounded=0;shadow=1;comic=0;labelBackgroundColor=none;strokeWidth=1;fontFamily=Verdana;fontSize=12;align=center;" parent="1" vertex="1">
          <mxGeometry x="2380" y="-250" width="120" height="57" as="geometry" />
        </mxCell>
        <mxCell id="yKrnhrEs9fii8439QQP5-16" value="" style="endArrow=classic;html=1;rounded=0;dashed=1;exitX=0.016;exitY=0.339;exitDx=0;exitDy=0;entryX=0.981;entryY=0.715;entryDx=0;entryDy=0;entryPerimeter=0;exitPerimeter=0;" parent="1" source="yKrnhrEs9fii8439QQP5-10" target="yKrnhrEs9fii8439QQP5-14" edge="1">
          <mxGeometry width="50" height="50" relative="1" as="geometry">
            <mxPoint x="2791.76" y="-60" as="sourcePoint" />
            <mxPoint x="2670" y="-48.180000000000064" as="targetPoint" />
            <Array as="points" />
          </mxGeometry>
        </mxCell>
        <mxCell id="yKrnhrEs9fii8439QQP5-17" value="" style="ellipse;whiteSpace=wrap;html=1;rounded=0;shadow=1;comic=0;labelBackgroundColor=none;strokeWidth=1;fontFamily=Verdana;fontSize=12;align=center;" parent="1" vertex="1">
          <mxGeometry x="2572.5" y="-350" width="180" height="70" as="geometry" />
        </mxCell>
        <mxCell id="yKrnhrEs9fii8439QQP5-18" value="Details Verification" style="text;html=1;strokeColor=none;fillColor=none;align=center;verticalAlign=middle;whiteSpace=wrap;rounded=0;" parent="1" vertex="1">
          <mxGeometry x="2610" y="-350" width="105" height="30" as="geometry" />
        </mxCell>
        <mxCell id="yKrnhrEs9fii8439QQP5-19" value="Ext P: If&amp;nbsp; &amp;nbsp;verification Success" style="text;html=1;strokeColor=none;fillColor=none;align=center;verticalAlign=middle;whiteSpace=wrap;rounded=0;" parent="1" vertex="1">
          <mxGeometry x="2605" y="-310" width="125" height="30" as="geometry" />
        </mxCell>
        <mxCell id="yKrnhrEs9fii8439QQP5-20" value="" style="endArrow=none;html=1;rounded=0;exitX=0;exitY=0.5;exitDx=0;exitDy=0;entryX=1;entryY=0.5;entryDx=0;entryDy=0;" parent="1" target="yKrnhrEs9fii8439QQP5-17" edge="1">
          <mxGeometry width="50" height="50" relative="1" as="geometry">
            <mxPoint x="2572.5" y="-315.5" as="sourcePoint" />
            <mxPoint x="2772.5" y="-315" as="targetPoint" />
          </mxGeometry>
        </mxCell>
        <mxCell id="yKrnhrEs9fii8439QQP5-21" value="" style="endArrow=classic;html=1;rounded=0;dashed=1;entryX=0.5;entryY=1;entryDx=0;entryDy=0;exitX=0.5;exitY=0;exitDx=0;exitDy=0;" parent="1" source="yKrnhrEs9fii8439QQP5-10" target="yKrnhrEs9fii8439QQP5-19" edge="1">
          <mxGeometry width="50" height="50" relative="1" as="geometry">
            <mxPoint x="2675" y="-30" as="sourcePoint" />
            <mxPoint x="2675" y="-90" as="targetPoint" />
            <Array as="points" />
          </mxGeometry>
        </mxCell>
        <mxCell id="yKrnhrEs9fii8439QQP5-22" value="&amp;lt;Include&amp;gt;" style="text;html=1;strokeColor=none;fillColor=none;align=center;verticalAlign=middle;whiteSpace=wrap;rounded=0;" parent="1" vertex="1">
          <mxGeometry x="2670" y="-250" width="60" height="30" as="geometry" />
        </mxCell>
        <mxCell id="yKrnhrEs9fii8439QQP5-23" value="Add User To the System" style="ellipse;whiteSpace=wrap;html=1;rounded=0;shadow=1;comic=0;labelBackgroundColor=none;strokeWidth=1;fontFamily=Verdana;fontSize=12;align=center;" parent="1" vertex="1">
          <mxGeometry x="2380" y="-350" width="120" height="70" as="geometry" />
        </mxCell>
        <mxCell id="yKrnhrEs9fii8439QQP5-24" value="" style="endArrow=classic;html=1;rounded=0;dashed=1;exitX=1.042;exitY=0.6;exitDx=0;exitDy=0;exitPerimeter=0;" parent="1" source="yKrnhrEs9fii8439QQP5-23" edge="1">
          <mxGeometry width="50" height="50" relative="1" as="geometry">
            <mxPoint x="2675" y="-30" as="sourcePoint" />
            <mxPoint x="2570" y="-310" as="targetPoint" />
            <Array as="points" />
          </mxGeometry>
        </mxCell>
        <mxCell id="yKrnhrEs9fii8439QQP5-25" value="&amp;lt;exclude&amp;gt;" style="text;html=1;strokeColor=none;fillColor=none;align=center;verticalAlign=middle;whiteSpace=wrap;rounded=0;" parent="1" vertex="1">
          <mxGeometry x="2510" y="-340" width="60" height="30" as="geometry" />
        </mxCell>
        <mxCell id="yKrnhrEs9fii8439QQP5-26" value="" style="endArrow=none;html=1;rounded=0;entryX=0;entryY=0.3333333333333333;entryDx=0;entryDy=0;entryPerimeter=0;exitX=0.981;exitY=0.645;exitDx=0;exitDy=0;exitPerimeter=0;" parent="1" source="yKrnhrEs9fii8439QQP5-10" target="yKrnhrEs9fii8439QQP5-9" edge="1">
          <mxGeometry width="50" height="50" relative="1" as="geometry">
            <mxPoint x="2270" y="40" as="sourcePoint" />
            <mxPoint x="2320" y="-10" as="targetPoint" />
          </mxGeometry>
        </mxCell>
        <mxCell id="yKrnhrEs9fii8439QQP5-27" value="Search Insuarance" style="ellipse;whiteSpace=wrap;html=1;rounded=0;shadow=1;comic=0;labelBackgroundColor=none;strokeWidth=1;fontFamily=Verdana;fontSize=12;align=center;" parent="1" vertex="1">
          <mxGeometry x="2617.5" y="80" width="120" height="70" as="geometry" />
        </mxCell>
        <mxCell id="yKrnhrEs9fii8439QQP5-28" value="" style="endArrow=none;html=1;rounded=0;exitX=0;exitY=0.3333333333333333;exitDx=0;exitDy=0;exitPerimeter=0;entryX=1.004;entryY=0.357;entryDx=0;entryDy=0;entryPerimeter=0;" parent="1" source="yKrnhrEs9fii8439QQP5-9" target="yKrnhrEs9fii8439QQP5-27" edge="1">
          <mxGeometry width="50" height="50" relative="1" as="geometry">
            <mxPoint x="2270" y="150" as="sourcePoint" />
            <mxPoint x="2320" y="100" as="targetPoint" />
          </mxGeometry>
        </mxCell>
        <mxCell id="yKrnhrEs9fii8439QQP5-29" value="Insurance Facility" style="ellipse;whiteSpace=wrap;html=1;rounded=0;shadow=1;comic=0;labelBackgroundColor=none;strokeWidth=1;fontFamily=Verdana;fontSize=12;align=center;" parent="1" vertex="1">
          <mxGeometry x="2400" width="120" height="70" as="geometry" />
        </mxCell>
        <mxCell id="yKrnhrEs9fii8439QQP5-30" value="Insurance Availability" style="ellipse;whiteSpace=wrap;html=1;rounded=0;shadow=1;comic=0;labelBackgroundColor=none;strokeWidth=1;fontFamily=Verdana;fontSize=12;align=center;" parent="1" vertex="1">
          <mxGeometry x="2398" y="86" width="120" height="70" as="geometry" />
        </mxCell>
        <mxCell id="yKrnhrEs9fii8439QQP5-31" value="Insurance Payment&amp;nbsp;" style="ellipse;whiteSpace=wrap;html=1;rounded=0;shadow=1;comic=0;labelBackgroundColor=none;strokeWidth=1;fontFamily=Verdana;fontSize=12;align=center;" parent="1" vertex="1">
          <mxGeometry x="2400" y="180" width="120" height="70" as="geometry" />
        </mxCell>
        <mxCell id="yKrnhrEs9fii8439QQP5-32" value="" style="endArrow=none;html=1;rounded=0;entryX=1.029;entryY=0.565;entryDx=0;entryDy=0;entryPerimeter=0;" parent="1" target="yKrnhrEs9fii8439QQP5-29" edge="1">
          <mxGeometry width="50" height="50" relative="1" as="geometry">
            <mxPoint x="2550" y="40" as="sourcePoint" />
            <mxPoint x="2500" y="80" as="targetPoint" />
          </mxGeometry>
        </mxCell>
        <mxCell id="yKrnhrEs9fii8439QQP5-33" value="" style="endArrow=none;html=1;rounded=0;entryX=1.014;entryY=0.565;entryDx=0;entryDy=0;entryPerimeter=0;" parent="1" target="yKrnhrEs9fii8439QQP5-31" edge="1">
          <mxGeometry width="50" height="50" relative="1" as="geometry">
            <mxPoint x="2550" y="220" as="sourcePoint" />
            <mxPoint x="2450" y="200" as="targetPoint" />
          </mxGeometry>
        </mxCell>
        <mxCell id="yKrnhrEs9fii8439QQP5-34" value="" style="endArrow=none;html=1;rounded=0;" parent="1" edge="1">
          <mxGeometry width="50" height="50" relative="1" as="geometry">
            <mxPoint x="2550" y="40" as="sourcePoint" />
            <mxPoint x="2550" y="220" as="targetPoint" />
          </mxGeometry>
        </mxCell>
        <mxCell id="yKrnhrEs9fii8439QQP5-35" value="" style="endArrow=classic;html=1;rounded=0;entryX=0.004;entryY=0.6;entryDx=0;entryDy=0;entryPerimeter=0;exitX=1;exitY=0.5;exitDx=0;exitDy=0;" parent="1" source="yKrnhrEs9fii8439QQP5-30" target="yKrnhrEs9fii8439QQP5-27" edge="1">
          <mxGeometry width="50" height="50" relative="1" as="geometry">
            <mxPoint x="2270" y="140" as="sourcePoint" />
            <mxPoint x="2320" y="90" as="targetPoint" />
          </mxGeometry>
        </mxCell>
        <mxCell id="yKrnhrEs9fii8439QQP5-36" value="Customer" style="shape=umlActor;verticalLabelPosition=bottom;verticalAlign=top;html=1;outlineConnect=0;" parent="1" vertex="1">
          <mxGeometry x="2836" y="430" width="30" height="60" as="geometry" />
        </mxCell>
        <mxCell id="yKrnhrEs9fii8439QQP5-37" value="" style="endArrow=classic;html=1;rounded=0;" parent="1" edge="1">
          <mxGeometry width="50" height="50" relative="1" as="geometry">
            <mxPoint x="2850" y="420" as="sourcePoint" />
            <mxPoint x="2850" y="160" as="targetPoint" />
          </mxGeometry>
        </mxCell>
        <mxCell id="yKrnhrEs9fii8439QQP5-38" value="" style="ellipse;whiteSpace=wrap;html=1;rounded=0;shadow=1;comic=0;labelBackgroundColor=none;strokeWidth=1;fontFamily=Verdana;fontSize=12;align=center;" parent="1" vertex="1">
          <mxGeometry x="2400" y="475" width="150" height="90" as="geometry" />
        </mxCell>
        <mxCell id="yKrnhrEs9fii8439QQP5-39" value="&lt;span style=&quot;font-family: &amp;#34;verdana&amp;#34;&quot;&gt;Login User Profile&lt;/span&gt;" style="text;html=1;strokeColor=none;fillColor=none;align=center;verticalAlign=middle;whiteSpace=wrap;rounded=0;" parent="1" vertex="1">
          <mxGeometry x="2410" y="490" width="120" height="30" as="geometry" />
        </mxCell>
        <mxCell id="yKrnhrEs9fii8439QQP5-40" value="Ext P : If Customer Entered Wrong Details" style="text;html=1;strokeColor=none;fillColor=none;align=center;verticalAlign=middle;whiteSpace=wrap;rounded=0;" parent="1" vertex="1">
          <mxGeometry x="2404" y="522" width="140" height="30" as="geometry" />
        </mxCell>
        <mxCell id="yKrnhrEs9fii8439QQP5-41" value="" style="endArrow=none;html=1;rounded=0;exitX=0;exitY=0.5;exitDx=0;exitDy=0;entryX=1;entryY=0.5;entryDx=0;entryDy=0;" parent="1" source="yKrnhrEs9fii8439QQP5-38" target="yKrnhrEs9fii8439QQP5-38" edge="1">
          <mxGeometry width="50" height="50" relative="1" as="geometry">
            <mxPoint x="2411.42" y="520.0100000000002" as="sourcePoint" />
            <mxPoint x="2540" y="520" as="targetPoint" />
          </mxGeometry>
        </mxCell>
        <mxCell id="yKrnhrEs9fii8439QQP5-42" value="Leave a Comment" style="ellipse;whiteSpace=wrap;html=1;rounded=0;shadow=1;comic=0;labelBackgroundColor=none;strokeWidth=1;fontFamily=Verdana;fontSize=12;align=center;" parent="1" vertex="1">
          <mxGeometry x="2350" y="900" width="120" height="70" as="geometry" />
        </mxCell>
        <mxCell id="yKrnhrEs9fii8439QQP5-43" value="" style="endArrow=classic;html=1;rounded=0;dashed=1;exitX=0.5;exitY=0;exitDx=0;exitDy=0;entryX=0.5;entryY=1;entryDx=0;entryDy=0;" parent="1" source="yKrnhrEs9fii8439QQP5-47" target="yKrnhrEs9fii8439QQP5-38" edge="1">
          <mxGeometry width="50" height="50" relative="1" as="geometry">
            <mxPoint x="2378.96" y="640.98" as="sourcePoint" />
            <mxPoint x="2450" y="560" as="targetPoint" />
            <Array as="points" />
          </mxGeometry>
        </mxCell>
        <mxCell id="yKrnhrEs9fii8439QQP5-44" value="&amp;lt;exclude&amp;gt;" style="text;html=1;strokeColor=none;fillColor=none;align=center;verticalAlign=middle;whiteSpace=wrap;rounded=0;" parent="1" vertex="1">
          <mxGeometry x="2390" y="579" width="60" height="30" as="geometry" />
        </mxCell>
        <mxCell id="yKrnhrEs9fii8439QQP5-45" value="" style="endArrow=none;html=1;rounded=0;exitX=0;exitY=0.3333333333333333;exitDx=0;exitDy=0;exitPerimeter=0;entryX=1;entryY=0.5;entryDx=0;entryDy=0;" parent="1" source="yKrnhrEs9fii8439QQP5-36" target="yKrnhrEs9fii8439QQP5-38" edge="1">
          <mxGeometry width="50" height="50" relative="1" as="geometry">
            <mxPoint x="2850" y="110" as="sourcePoint" />
            <mxPoint x="2747.9799999999996" y="114.99000000000001" as="targetPoint" />
          </mxGeometry>
        </mxCell>
        <mxCell id="yKrnhrEs9fii8439QQP5-46" value="" style="ellipse;whiteSpace=wrap;html=1;rounded=0;shadow=1;comic=0;labelBackgroundColor=none;strokeWidth=1;fontFamily=Verdana;fontSize=12;align=center;" parent="1" vertex="1">
          <mxGeometry x="2394" y="735" width="176" height="100" as="geometry" />
        </mxCell>
        <mxCell id="yKrnhrEs9fii8439QQP5-47" value="Ask to Re-Enter Details" style="ellipse;whiteSpace=wrap;html=1;rounded=0;shadow=1;comic=0;labelBackgroundColor=none;strokeWidth=1;fontFamily=Verdana;fontSize=12;align=center;" parent="1" vertex="1">
          <mxGeometry x="2415" y="630" width="120" height="57" as="geometry" />
        </mxCell>
        <mxCell id="yKrnhrEs9fii8439QQP5-48" value="Give Star Rate" style="text;html=1;strokeColor=none;fillColor=none;align=center;verticalAlign=middle;whiteSpace=wrap;rounded=0;" parent="1" vertex="1">
          <mxGeometry x="2427" y="750" width="110" height="30" as="geometry" />
        </mxCell>
        <mxCell id="yKrnhrEs9fii8439QQP5-49" value="" style="endArrow=none;html=1;rounded=0;exitX=0;exitY=0.5;exitDx=0;exitDy=0;entryX=1;entryY=0.5;entryDx=0;entryDy=0;" parent="1" target="yKrnhrEs9fii8439QQP5-46" edge="1">
          <mxGeometry width="50" height="50" relative="1" as="geometry">
            <mxPoint x="2395" y="784.5" as="sourcePoint" />
            <mxPoint x="2545" y="784.5" as="targetPoint" />
          </mxGeometry>
        </mxCell>
        <mxCell id="yKrnhrEs9fii8439QQP5-50" value="Ext P: If customer Want" style="text;html=1;strokeColor=none;fillColor=none;align=center;verticalAlign=middle;whiteSpace=wrap;rounded=0;" parent="1" vertex="1">
          <mxGeometry x="2427" y="790" width="110" height="30" as="geometry" />
        </mxCell>
        <mxCell id="yKrnhrEs9fii8439QQP5-51" value="" style="endArrow=none;html=1;rounded=0;" parent="1" target="yKrnhrEs9fii8439QQP5-46" edge="1">
          <mxGeometry width="50" height="50" relative="1" as="geometry">
            <mxPoint x="2830" y="450" as="sourcePoint" />
            <mxPoint x="2560" y="530" as="targetPoint" />
          </mxGeometry>
        </mxCell>
        <mxCell id="yKrnhrEs9fii8439QQP5-52" value="Book Ticket Online" style="ellipse;whiteSpace=wrap;html=1;rounded=0;shadow=1;comic=0;labelBackgroundColor=none;strokeWidth=1;fontFamily=Verdana;fontSize=12;align=center;" parent="1" vertex="1">
          <mxGeometry x="2089" y="-20" width="120" height="70" as="geometry" />
        </mxCell>
        <mxCell id="yKrnhrEs9fii8439QQP5-53" value="Cancel Ticket Counter" style="ellipse;whiteSpace=wrap;html=1;rounded=0;shadow=1;comic=0;labelBackgroundColor=none;strokeWidth=1;fontFamily=Verdana;fontSize=12;align=center;" parent="1" vertex="1">
          <mxGeometry x="2088" y="590" width="120" height="70" as="geometry" />
        </mxCell>
        <mxCell id="yKrnhrEs9fii8439QQP5-54" value="Cancel Ticket By System" style="ellipse;whiteSpace=wrap;html=1;rounded=0;shadow=1;comic=0;labelBackgroundColor=none;strokeWidth=1;fontFamily=Verdana;fontSize=12;align=center;" parent="1" vertex="1">
          <mxGeometry x="2090" y="470" width="120" height="70" as="geometry" />
        </mxCell>
        <mxCell id="yKrnhrEs9fii8439QQP5-55" value="Cancel Ticket Online" style="ellipse;whiteSpace=wrap;html=1;rounded=0;shadow=1;comic=0;labelBackgroundColor=none;strokeWidth=1;fontFamily=Verdana;fontSize=12;align=center;" parent="1" vertex="1">
          <mxGeometry x="2090" y="360" width="120" height="70" as="geometry" />
        </mxCell>
        <mxCell id="yKrnhrEs9fii8439QQP5-56" value="Book Ticket Counter" style="ellipse;whiteSpace=wrap;html=1;rounded=0;shadow=1;comic=0;labelBackgroundColor=none;strokeWidth=1;fontFamily=Verdana;fontSize=12;align=center;" parent="1" vertex="1">
          <mxGeometry x="2093" y="240" width="120" height="70" as="geometry" />
        </mxCell>
        <mxCell id="yKrnhrEs9fii8439QQP5-57" value="Book Ticket By System" style="ellipse;whiteSpace=wrap;html=1;rounded=0;shadow=1;comic=0;labelBackgroundColor=none;strokeWidth=1;fontFamily=Verdana;fontSize=12;align=center;" parent="1" vertex="1">
          <mxGeometry x="2090" y="120" width="120" height="70" as="geometry" />
        </mxCell>
        <mxCell id="yKrnhrEs9fii8439QQP5-58" value="" style="endArrow=none;html=1;rounded=0;entryX=1;entryY=0;entryDx=0;entryDy=0;" parent="1" target="yKrnhrEs9fii8439QQP5-53" edge="1">
          <mxGeometry width="50" height="50" relative="1" as="geometry">
            <mxPoint x="2830" y="450" as="sourcePoint" />
            <mxPoint x="2560" y="530" as="targetPoint" />
            <Array as="points">
              <mxPoint x="2570" y="450" />
              <mxPoint x="2400" y="470" />
              <mxPoint x="2370" y="510" />
            </Array>
          </mxGeometry>
        </mxCell>
        <mxCell id="yKrnhrEs9fii8439QQP5-59" value="" style="endArrow=none;html=1;rounded=0;entryX=1;entryY=0;entryDx=0;entryDy=0;" parent="1" edge="1">
          <mxGeometry width="50" height="50" relative="1" as="geometry">
            <mxPoint x="2830" y="450" as="sourcePoint" />
            <mxPoint x="2210.0015148825073" y="510.50770578142465" as="targetPoint" />
            <Array as="points">
              <mxPoint x="2587" y="420" />
              <mxPoint x="2387" y="440" />
            </Array>
          </mxGeometry>
        </mxCell>
        <mxCell id="yKrnhrEs9fii8439QQP5-60" value="" style="endArrow=none;html=1;rounded=0;entryX=1;entryY=0;entryDx=0;entryDy=0;" parent="1" edge="1">
          <mxGeometry width="50" height="50" relative="1" as="geometry">
            <mxPoint x="2830" y="450" as="sourcePoint" />
            <mxPoint x="2213.0015148825078" y="400.50770578142465" as="targetPoint" />
            <Array as="points">
              <mxPoint x="2590" y="390" />
              <mxPoint x="2390" y="401" />
            </Array>
          </mxGeometry>
        </mxCell>
        <mxCell id="yKrnhrEs9fii8439QQP5-61" value="" style="endArrow=none;html=1;rounded=0;entryX=1;entryY=0;entryDx=0;entryDy=0;" parent="1" edge="1">
          <mxGeometry width="50" height="50" relative="1" as="geometry">
            <mxPoint x="2830" y="450" as="sourcePoint" />
            <mxPoint x="2180.0015148825078" y="310.50770578142465" as="targetPoint" />
            <Array as="points">
              <mxPoint x="2550" y="360" />
              <mxPoint x="2330" y="350" />
            </Array>
          </mxGeometry>
        </mxCell>
        <mxCell id="yKrnhrEs9fii8439QQP5-62" value="" style="endArrow=none;html=1;rounded=0;entryX=1;entryY=0;entryDx=0;entryDy=0;" parent="1" edge="1">
          <mxGeometry width="50" height="50" relative="1" as="geometry">
            <mxPoint x="2820" y="450" as="sourcePoint" />
            <mxPoint x="2180.0015148825078" y="185.25770578142465" as="targetPoint" />
            <Array as="points">
              <mxPoint x="2540" y="330" />
              <mxPoint x="2320" y="280" />
            </Array>
          </mxGeometry>
        </mxCell>
        <mxCell id="yKrnhrEs9fii8439QQP5-63" value="" style="endArrow=none;html=1;rounded=0;entryX=1;entryY=1;entryDx=0;entryDy=0;" parent="1" target="yKrnhrEs9fii8439QQP5-52" edge="1">
          <mxGeometry width="50" height="50" relative="1" as="geometry">
            <mxPoint x="2830" y="450" as="sourcePoint" />
            <mxPoint x="2190.0015148825078" y="195.25770578142465" as="targetPoint" />
            <Array as="points">
              <mxPoint x="2580" y="320" />
              <mxPoint x="2360" y="260" />
            </Array>
          </mxGeometry>
        </mxCell>
        <mxCell id="yKrnhrEs9fii8439QQP5-64" value="" style="endArrow=classic;html=1;rounded=0;dashed=1;exitX=0.5;exitY=1;exitDx=0;exitDy=0;" parent="1" source="yKrnhrEs9fii8439QQP5-52" target="yKrnhrEs9fii8439QQP5-57" edge="1">
          <mxGeometry width="50" height="50" relative="1" as="geometry">
            <mxPoint x="1610" y="330" as="sourcePoint" />
            <mxPoint x="1600" y="400" as="targetPoint" />
            <Array as="points" />
          </mxGeometry>
        </mxCell>
        <mxCell id="yKrnhrEs9fii8439QQP5-65" value="" style="endArrow=classic;html=1;rounded=0;dashed=1;" parent="1" edge="1">
          <mxGeometry width="50" height="50" relative="1" as="geometry">
            <mxPoint x="2152.41" y="430" as="sourcePoint" />
            <mxPoint x="2152" y="470" as="targetPoint" />
            <Array as="points" />
          </mxGeometry>
        </mxCell>
        <mxCell id="yKrnhrEs9fii8439QQP5-66" value="" style="endArrow=classic;html=1;rounded=0;dashed=1;exitX=0.5;exitY=0;exitDx=0;exitDy=0;entryX=0.5;entryY=1;entryDx=0;entryDy=0;" parent="1" source="yKrnhrEs9fii8439QQP5-53" target="yKrnhrEs9fii8439QQP5-54" edge="1">
          <mxGeometry width="50" height="50" relative="1" as="geometry">
            <mxPoint x="1848.96" y="598.49" as="sourcePoint" />
            <mxPoint x="1840" y="541.5000000000002" as="targetPoint" />
            <Array as="points" />
          </mxGeometry>
        </mxCell>
        <mxCell id="yKrnhrEs9fii8439QQP5-67" value="&amp;lt;Include&amp;gt;" style="text;html=1;strokeColor=none;fillColor=none;align=center;verticalAlign=middle;whiteSpace=wrap;rounded=0;" parent="1" vertex="1">
          <mxGeometry x="2090" y="440" width="60" height="30" as="geometry" />
        </mxCell>
        <mxCell id="yKrnhrEs9fii8439QQP5-68" value="" style="endArrow=classic;html=1;rounded=0;dashed=1;exitX=0.5;exitY=0;exitDx=0;exitDy=0;entryX=0.5;entryY=1;entryDx=0;entryDy=0;" parent="1" edge="1">
          <mxGeometry width="50" height="50" relative="1" as="geometry">
            <mxPoint x="2152.41" y="240" as="sourcePoint" />
            <mxPoint x="2152.41" y="190" as="targetPoint" />
            <Array as="points" />
          </mxGeometry>
        </mxCell>
        <mxCell id="yKrnhrEs9fii8439QQP5-69" value="&amp;lt;Include&amp;gt;" style="text;html=1;strokeColor=none;fillColor=none;align=center;verticalAlign=middle;whiteSpace=wrap;rounded=0;" parent="1" vertex="1">
          <mxGeometry x="2080" y="205" width="60" height="30" as="geometry" />
        </mxCell>
        <mxCell id="yKrnhrEs9fii8439QQP5-70" value="&amp;lt;Include&amp;gt;" style="text;html=1;strokeColor=none;fillColor=none;align=center;verticalAlign=middle;whiteSpace=wrap;rounded=0;" parent="1" vertex="1">
          <mxGeometry x="2089" y="70" width="60" height="30" as="geometry" />
        </mxCell>
        <mxCell id="yKrnhrEs9fii8439QQP5-71" value="&amp;lt;Include&amp;gt;" style="text;html=1;strokeColor=none;fillColor=none;align=center;verticalAlign=middle;whiteSpace=wrap;rounded=0;" parent="1" vertex="1">
          <mxGeometry x="2010" y="60" width="60" height="30" as="geometry" />
        </mxCell>
        <mxCell id="yKrnhrEs9fii8439QQP5-72" value="&amp;lt;Include&amp;gt;" style="text;html=1;strokeColor=none;fillColor=none;align=center;verticalAlign=middle;whiteSpace=wrap;rounded=0;" parent="1" vertex="1">
          <mxGeometry x="1980" y="180" width="60" height="30" as="geometry" />
        </mxCell>
        <mxCell id="yKrnhrEs9fii8439QQP5-73" value="Agent" style="shape=umlActor;verticalLabelPosition=bottom;verticalAlign=top;html=1;outlineConnect=0;" parent="1" vertex="1">
          <mxGeometry x="1440" y="220" width="30" height="60" as="geometry" />
        </mxCell>
        <mxCell id="yKrnhrEs9fii8439QQP5-74" value="Make New Customers" style="ellipse;whiteSpace=wrap;html=1;rounded=0;shadow=1;comic=0;labelBackgroundColor=none;strokeWidth=1;fontFamily=Verdana;fontSize=12;align=center;" parent="1" vertex="1">
          <mxGeometry x="1630" y="50" width="90" height="60" as="geometry" />
        </mxCell>
        <mxCell id="yKrnhrEs9fii8439QQP5-75" value="" style="endArrow=classic;html=1;rounded=0;exitX=0.5;exitY=0;exitDx=0;exitDy=0;exitPerimeter=0;" parent="1" source="yKrnhrEs9fii8439QQP5-3" edge="1">
          <mxGeometry width="50" height="50" relative="1" as="geometry">
            <mxPoint x="1640" y="250" as="sourcePoint" />
            <mxPoint x="1455" y="310" as="targetPoint" />
          </mxGeometry>
        </mxCell>
        <mxCell id="yKrnhrEs9fii8439QQP5-76" value="" style="endArrow=none;html=1;rounded=0;exitX=1;exitY=0.3333333333333333;exitDx=0;exitDy=0;exitPerimeter=0;entryX=0.5;entryY=1;entryDx=0;entryDy=0;" parent="1" source="yKrnhrEs9fii8439QQP5-73" target="yKrnhrEs9fii8439QQP5-74" edge="1">
          <mxGeometry width="50" height="50" relative="1" as="geometry">
            <mxPoint x="1640" y="250" as="sourcePoint" />
            <mxPoint x="1690" y="200" as="targetPoint" />
          </mxGeometry>
        </mxCell>
        <mxCell id="yKrnhrEs9fii8439QQP5-77" value="Check Medical Claim Details" style="ellipse;whiteSpace=wrap;html=1;rounded=0;shadow=1;comic=0;labelBackgroundColor=none;strokeWidth=1;fontFamily=Verdana;fontSize=12;align=center;" parent="1" vertex="1">
          <mxGeometry x="1580" y="390" width="120" height="70" as="geometry" />
        </mxCell>
        <mxCell id="yKrnhrEs9fii8439QQP5-78" value="" style="endArrow=none;html=1;rounded=0;exitX=1;exitY=0.3333333333333333;exitDx=0;exitDy=0;exitPerimeter=0;entryX=0.373;entryY=-0.027;entryDx=0;entryDy=0;entryPerimeter=0;" parent="1" source="yKrnhrEs9fii8439QQP5-73" target="yKrnhrEs9fii8439QQP5-77" edge="1">
          <mxGeometry width="50" height="50" relative="1" as="geometry">
            <mxPoint x="1480" y="250" as="sourcePoint" />
            <mxPoint x="1615" y="-90" as="targetPoint" />
          </mxGeometry>
        </mxCell>
        <mxCell id="yKrnhrEs9fii8439QQP5-79" value="Manage Insurance" style="ellipse;whiteSpace=wrap;html=1;rounded=0;shadow=1;comic=0;labelBackgroundColor=none;strokeWidth=1;fontFamily=Verdana;fontSize=12;align=center;" parent="1" vertex="1">
          <mxGeometry x="1707" y="990" width="120" height="70" as="geometry" />
        </mxCell>
        <mxCell id="yKrnhrEs9fii8439QQP5-80" value="Manage Polices" style="ellipse;whiteSpace=wrap;html=1;rounded=0;shadow=1;comic=0;labelBackgroundColor=none;strokeWidth=1;fontFamily=Verdana;fontSize=12;align=center;" parent="1" vertex="1">
          <mxGeometry x="1510" y="1160" width="120" height="70" as="geometry" />
        </mxCell>
        <mxCell id="yKrnhrEs9fii8439QQP5-81" value="Profile Help" style="ellipse;whiteSpace=wrap;html=1;rounded=0;shadow=1;comic=0;labelBackgroundColor=none;strokeWidth=1;fontFamily=Verdana;fontSize=12;align=center;" parent="1" vertex="1">
          <mxGeometry x="1900" y="750" width="120" height="70" as="geometry" />
        </mxCell>
        <mxCell id="yKrnhrEs9fii8439QQP5-82" value="&amp;lt;exclude&amp;gt;" style="text;html=1;strokeColor=none;fillColor=none;align=center;verticalAlign=middle;whiteSpace=wrap;rounded=0;" parent="1" vertex="1">
          <mxGeometry x="1820" y="760" width="60" height="30" as="geometry" />
        </mxCell>
        <mxCell id="yKrnhrEs9fii8439QQP5-83" value="&amp;nbsp;" style="ellipse;whiteSpace=wrap;html=1;rounded=0;shadow=1;comic=0;labelBackgroundColor=none;strokeWidth=1;fontFamily=Verdana;fontSize=12;align=center;" parent="1" vertex="1">
          <mxGeometry x="1620" y="710" width="180" height="110" as="geometry" />
        </mxCell>
        <mxCell id="yKrnhrEs9fii8439QQP5-84" value="Set Up System Users Profile" style="text;html=1;strokeColor=none;fillColor=none;align=center;verticalAlign=middle;whiteSpace=wrap;rounded=0;" parent="1" vertex="1">
          <mxGeometry x="1650" y="730" width="120" height="30" as="geometry" />
        </mxCell>
        <mxCell id="yKrnhrEs9fii8439QQP5-85" value="Extension Point Profile Help&amp;nbsp;&lt;br&gt;Privacy Help" style="text;html=1;strokeColor=none;fillColor=none;align=center;verticalAlign=middle;whiteSpace=wrap;rounded=0;" parent="1" vertex="1">
          <mxGeometry x="1620" y="770" width="170" height="30" as="geometry" />
        </mxCell>
        <mxCell id="yKrnhrEs9fii8439QQP5-86" value="" style="endArrow=none;html=1;rounded=0;exitX=0;exitY=0.5;exitDx=0;exitDy=0;entryX=1;entryY=0.5;entryDx=0;entryDy=0;" parent="1" edge="1">
          <mxGeometry width="50" height="50" relative="1" as="geometry">
            <mxPoint x="1620" y="765" as="sourcePoint" />
            <mxPoint x="1800" y="765" as="targetPoint" />
          </mxGeometry>
        </mxCell>
        <mxCell id="yKrnhrEs9fii8439QQP5-87" value="" style="endArrow=classic;html=1;rounded=0;dashed=1;entryX=1.017;entryY=0.613;entryDx=0;entryDy=0;entryPerimeter=0;" parent="1" target="yKrnhrEs9fii8439QQP5-83" edge="1">
          <mxGeometry width="50" height="50" relative="1" as="geometry">
            <mxPoint x="1900" y="790" as="sourcePoint" />
            <mxPoint x="1789.1200000000003" y="801.8200000000002" as="targetPoint" />
            <Array as="points" />
          </mxGeometry>
        </mxCell>
        <mxCell id="yKrnhrEs9fii8439QQP5-88" value="" style="endArrow=none;html=1;rounded=0;exitX=1;exitY=0.3333333333333333;exitDx=0;exitDy=0;exitPerimeter=0;entryX=0.013;entryY=0.421;entryDx=0;entryDy=0;entryPerimeter=0;" parent="1" source="yKrnhrEs9fii8439QQP5-3" target="yKrnhrEs9fii8439QQP5-83" edge="1">
          <mxGeometry width="50" height="50" relative="1" as="geometry">
            <mxPoint x="1480" y="250" as="sourcePoint" />
            <mxPoint x="1630" y="830" as="targetPoint" />
          </mxGeometry>
        </mxCell>
        <mxCell id="yKrnhrEs9fii8439QQP5-89" value="" style="endArrow=none;html=1;rounded=0;exitX=1;exitY=0.3333333333333333;exitDx=0;exitDy=0;exitPerimeter=0;entryX=-0.01;entryY=0.368;entryDx=0;entryDy=0;entryPerimeter=0;" parent="1" source="yKrnhrEs9fii8439QQP5-124" target="yKrnhrEs9fii8439QQP5-79" edge="1">
          <mxGeometry width="50" height="50" relative="1" as="geometry">
            <mxPoint x="1480" y="780" as="sourcePoint" />
            <mxPoint x="1652.3400000000001" y="846.31" as="targetPoint" />
          </mxGeometry>
        </mxCell>
        <mxCell id="yKrnhrEs9fii8439QQP5-90" value="" style="endArrow=none;html=1;rounded=0;exitX=1;exitY=0.3333333333333333;exitDx=0;exitDy=0;exitPerimeter=0;" parent="1" source="yKrnhrEs9fii8439QQP5-124" target="yKrnhrEs9fii8439QQP5-80" edge="1">
          <mxGeometry width="50" height="50" relative="1" as="geometry">
            <mxPoint x="1470" y="770" as="sourcePoint" />
            <mxPoint x="1728.8000000000002" y="975.7600000000002" as="targetPoint" />
          </mxGeometry>
        </mxCell>
        <mxCell id="yKrnhrEs9fii8439QQP5-91" value="" style="endArrow=none;html=1;rounded=0;exitX=1;exitY=0.3333333333333333;exitDx=0;exitDy=0;exitPerimeter=0;entryX=0.056;entryY=0.31;entryDx=0;entryDy=0;entryPerimeter=0;" parent="1" target="yKrnhrEs9fii8439QQP5-53" edge="1">
          <mxGeometry width="50" height="50" relative="1" as="geometry">
            <mxPoint x="1480" y="250" as="sourcePoint" />
            <mxPoint x="1574.7600000000002" y="438.1100000000001" as="targetPoint" />
          </mxGeometry>
        </mxCell>
        <mxCell id="yKrnhrEs9fii8439QQP5-92" value="" style="endArrow=none;html=1;rounded=0;entryX=0;entryY=0.5;entryDx=0;entryDy=0;" parent="1" target="yKrnhrEs9fii8439QQP5-55" edge="1">
          <mxGeometry width="50" height="50" relative="1" as="geometry">
            <mxPoint x="1470" y="240" as="sourcePoint" />
            <mxPoint x="2106.7200000000003" y="621.7000000000003" as="targetPoint" />
          </mxGeometry>
        </mxCell>
        <mxCell id="yKrnhrEs9fii8439QQP5-93" value="" style="endArrow=none;html=1;rounded=0;" parent="1" edge="1">
          <mxGeometry width="50" height="50" relative="1" as="geometry">
            <mxPoint x="1480" y="240" as="sourcePoint" />
            <mxPoint x="2090" y="280" as="targetPoint" />
          </mxGeometry>
        </mxCell>
        <mxCell id="yKrnhrEs9fii8439QQP5-94" value="" style="endArrow=none;html=1;rounded=0;exitX=1;exitY=0.3333333333333333;exitDx=0;exitDy=0;exitPerimeter=0;entryX=0;entryY=0.5;entryDx=0;entryDy=0;" parent="1" source="yKrnhrEs9fii8439QQP5-73" target="yKrnhrEs9fii8439QQP5-52" edge="1">
          <mxGeometry width="50" height="50" relative="1" as="geometry">
            <mxPoint x="1490" y="250" as="sourcePoint" />
            <mxPoint x="2100" y="290" as="targetPoint" />
          </mxGeometry>
        </mxCell>
        <mxCell id="yKrnhrEs9fii8439QQP5-95" value="Manage Payment" style="ellipse;whiteSpace=wrap;html=1;rounded=0;shadow=1;comic=0;labelBackgroundColor=none;strokeWidth=1;fontFamily=Verdana;fontSize=12;align=center;" parent="1" vertex="1">
          <mxGeometry x="1683.75" y="-31.5" width="120" height="70" as="geometry" />
        </mxCell>
        <mxCell id="yKrnhrEs9fii8439QQP5-96" value="Do Payment" style="ellipse;whiteSpace=wrap;html=1;rounded=0;shadow=1;comic=0;labelBackgroundColor=none;strokeWidth=1;fontFamily=Verdana;fontSize=12;align=center;" parent="1" vertex="1">
          <mxGeometry x="1860" y="-26.5" width="87.5" height="60" as="geometry" />
        </mxCell>
        <mxCell id="yKrnhrEs9fii8439QQP5-97" value="Cheque Payment&amp;nbsp;" style="ellipse;whiteSpace=wrap;html=1;rounded=0;shadow=1;comic=0;labelBackgroundColor=none;strokeWidth=1;fontFamily=Verdana;fontSize=12;align=center;" parent="1" vertex="1">
          <mxGeometry x="1790" y="-150" width="87.5" height="60" as="geometry" />
        </mxCell>
        <mxCell id="yKrnhrEs9fii8439QQP5-98" value="Cash Payment" style="ellipse;whiteSpace=wrap;html=1;rounded=0;shadow=1;comic=0;labelBackgroundColor=none;strokeWidth=1;fontFamily=Verdana;fontSize=12;align=center;" parent="1" vertex="1">
          <mxGeometry x="1932.5" y="-150" width="87.5" height="60" as="geometry" />
        </mxCell>
        <mxCell id="yKrnhrEs9fii8439QQP5-99" value="" style="endArrow=none;html=1;rounded=0;" parent="1" edge="1">
          <mxGeometry width="50" height="50" relative="1" as="geometry">
            <mxPoint x="1980" y="-60" as="sourcePoint" />
            <mxPoint x="1840" y="-60" as="targetPoint" />
          </mxGeometry>
        </mxCell>
        <mxCell id="yKrnhrEs9fii8439QQP5-100" value="" style="endArrow=none;html=1;rounded=0;exitX=0.582;exitY=1.019;exitDx=0;exitDy=0;exitPerimeter=0;" parent="1" source="yKrnhrEs9fii8439QQP5-97" edge="1">
          <mxGeometry width="50" height="50" relative="1" as="geometry">
            <mxPoint x="1710" y="600" as="sourcePoint" />
            <mxPoint x="1840" y="-60" as="targetPoint" />
          </mxGeometry>
        </mxCell>
        <mxCell id="yKrnhrEs9fii8439QQP5-101" value="" style="endArrow=none;html=1;rounded=0;entryX=0.5;entryY=1;entryDx=0;entryDy=0;" parent="1" target="yKrnhrEs9fii8439QQP5-98" edge="1">
          <mxGeometry width="50" height="50" relative="1" as="geometry">
            <mxPoint x="1976" y="-60" as="sourcePoint" />
            <mxPoint x="1580" y="510" as="targetPoint" />
          </mxGeometry>
        </mxCell>
        <mxCell id="yKrnhrEs9fii8439QQP5-102" value="" style="endArrow=classic;html=1;rounded=0;dashed=1;exitX=1;exitY=0.5;exitDx=0;exitDy=0;entryX=0;entryY=0.5;entryDx=0;entryDy=0;" parent="1" source="yKrnhrEs9fii8439QQP5-95" target="yKrnhrEs9fii8439QQP5-96" edge="1">
          <mxGeometry width="50" height="50" relative="1" as="geometry">
            <mxPoint x="2162.41" y="250" as="sourcePoint" />
            <mxPoint x="2162.41" y="200" as="targetPoint" />
            <Array as="points" />
          </mxGeometry>
        </mxCell>
        <mxCell id="yKrnhrEs9fii8439QQP5-103" value="" style="endArrow=classic;html=1;rounded=0;entryX=0.5;entryY=0;entryDx=0;entryDy=0;" parent="1" target="yKrnhrEs9fii8439QQP5-96" edge="1">
          <mxGeometry width="50" height="50" relative="1" as="geometry">
            <mxPoint x="1904" y="-60" as="sourcePoint" />
            <mxPoint x="1760" y="620" as="targetPoint" />
          </mxGeometry>
        </mxCell>
        <mxCell id="yKrnhrEs9fii8439QQP5-104" value="" style="endArrow=none;html=1;rounded=0;exitX=1;exitY=0.3333333333333333;exitDx=0;exitDy=0;exitPerimeter=0;entryX=0;entryY=0.5;entryDx=0;entryDy=0;" parent="1" source="yKrnhrEs9fii8439QQP5-73" target="yKrnhrEs9fii8439QQP5-95" edge="1">
          <mxGeometry width="50" height="50" relative="1" as="geometry">
            <mxPoint x="1480" y="250" as="sourcePoint" />
            <mxPoint x="1634.7600000000002" y="398.1099999999997" as="targetPoint" />
          </mxGeometry>
        </mxCell>
        <mxCell id="yKrnhrEs9fii8439QQP5-105" value="View Customer Profile" style="ellipse;whiteSpace=wrap;html=1;rounded=0;shadow=1;comic=0;labelBackgroundColor=none;strokeWidth=1;fontFamily=Verdana;fontSize=12;align=center;" parent="1" vertex="1">
          <mxGeometry x="1903" y="850" width="120" height="70" as="geometry" />
        </mxCell>
        <mxCell id="yKrnhrEs9fii8439QQP5-106" value="Update Customer Profile" style="ellipse;whiteSpace=wrap;html=1;rounded=0;shadow=1;comic=0;labelBackgroundColor=none;strokeWidth=1;fontFamily=Verdana;fontSize=12;align=center;" parent="1" vertex="1">
          <mxGeometry x="1880" y="960" width="120" height="70" as="geometry" />
        </mxCell>
        <mxCell id="yKrnhrEs9fii8439QQP5-107" value="" style="endArrow=classic;html=1;rounded=0;exitX=0.591;exitY=0.009;exitDx=0;exitDy=0;exitPerimeter=0;entryX=0.375;entryY=1.05;entryDx=0;entryDy=0;entryPerimeter=0;" parent="1" source="yKrnhrEs9fii8439QQP5-42" target="yKrnhrEs9fii8439QQP5-46" edge="1">
          <mxGeometry width="50" height="50" relative="1" as="geometry">
            <mxPoint x="2070" y="850" as="sourcePoint" />
            <mxPoint x="2120" y="800" as="targetPoint" />
          </mxGeometry>
        </mxCell>
        <mxCell id="yKrnhrEs9fii8439QQP5-108" value="View Customer FeedBack" style="ellipse;whiteSpace=wrap;html=1;rounded=0;shadow=1;comic=0;labelBackgroundColor=none;strokeWidth=1;fontFamily=Verdana;fontSize=12;align=center;" parent="1" vertex="1">
          <mxGeometry x="2093" y="850" width="120" height="70" as="geometry" />
        </mxCell>
        <mxCell id="yKrnhrEs9fii8439QQP5-109" value="Delete Customer Profile" style="ellipse;whiteSpace=wrap;html=1;rounded=0;shadow=1;comic=0;labelBackgroundColor=none;strokeWidth=1;fontFamily=Verdana;fontSize=12;align=center;" parent="1" vertex="1">
          <mxGeometry x="2033" y="960" width="120" height="70" as="geometry" />
        </mxCell>
        <mxCell id="yKrnhrEs9fii8439QQP5-110" value="" style="endArrow=classic;html=1;rounded=0;exitX=0.749;exitY=0.024;exitDx=0;exitDy=0;exitPerimeter=0;entryX=0.5;entryY=1;entryDx=0;entryDy=0;" parent="1" source="yKrnhrEs9fii8439QQP5-106" target="yKrnhrEs9fii8439QQP5-105" edge="1">
          <mxGeometry width="50" height="50" relative="1" as="geometry">
            <mxPoint x="2393.92" y="860.6300000000001" as="sourcePoint" />
            <mxPoint x="2433" y="800" as="targetPoint" />
          </mxGeometry>
        </mxCell>
        <mxCell id="yKrnhrEs9fii8439QQP5-111" value="" style="endArrow=classic;html=1;rounded=0;exitX=0.25;exitY=0;exitDx=0;exitDy=0;exitPerimeter=0;" parent="1" source="yKrnhrEs9fii8439QQP5-109" target="yKrnhrEs9fii8439QQP5-105" edge="1">
          <mxGeometry width="50" height="50" relative="1" as="geometry">
            <mxPoint x="1972.88" y="961.6800000000003" as="sourcePoint" />
            <mxPoint x="1973" y="930" as="targetPoint" />
          </mxGeometry>
        </mxCell>
        <mxCell id="yKrnhrEs9fii8439QQP5-112" value="" style="endArrow=classic;html=1;rounded=0;exitX=0;exitY=0.5;exitDx=0;exitDy=0;entryX=1;entryY=0.5;entryDx=0;entryDy=0;" parent="1" source="yKrnhrEs9fii8439QQP5-108" target="yKrnhrEs9fii8439QQP5-105" edge="1">
          <mxGeometry width="50" height="50" relative="1" as="geometry">
            <mxPoint x="2073" y="970" as="sourcePoint" />
            <mxPoint x="2009.9170927568985" y="922.5906693235765" as="targetPoint" />
          </mxGeometry>
        </mxCell>
        <mxCell id="yKrnhrEs9fii8439QQP5-113" value="" style="endArrow=none;html=1;rounded=0;entryX=-0.001;entryY=0.37;entryDx=0;entryDy=0;entryPerimeter=0;" parent="1" target="yKrnhrEs9fii8439QQP5-105" edge="1">
          <mxGeometry width="50" height="50" relative="1" as="geometry">
            <mxPoint x="1470" y="770" as="sourcePoint" />
            <mxPoint x="1728.7999999999993" y="975.7600000000002" as="targetPoint" />
            <Array as="points">
              <mxPoint x="1700" y="840" />
            </Array>
          </mxGeometry>
        </mxCell>
        <mxCell id="yKrnhrEs9fii8439QQP5-114" value="" style="endArrow=classic;html=1;rounded=0;dashed=1;exitX=0.5;exitY=0;exitDx=0;exitDy=0;entryX=0;entryY=0.5;entryDx=0;entryDy=0;" parent="1" source="yKrnhrEs9fii8439QQP5-108" target="yKrnhrEs9fii8439QQP5-46" edge="1">
          <mxGeometry width="50" height="50" relative="1" as="geometry">
            <mxPoint x="2485" y="640" as="sourcePoint" />
            <mxPoint x="2485" y="574.9999999999995" as="targetPoint" />
            <Array as="points">
              <mxPoint x="2153" y="790" />
            </Array>
          </mxGeometry>
        </mxCell>
        <mxCell id="yKrnhrEs9fii8439QQP5-115" value="&amp;lt;exclude&amp;gt;" style="text;html=1;strokeColor=none;fillColor=none;align=center;verticalAlign=middle;whiteSpace=wrap;rounded=0;" parent="1" vertex="1">
          <mxGeometry x="2260" y="760" width="60" height="30" as="geometry" />
        </mxCell>
        <mxCell id="yKrnhrEs9fii8439QQP5-116" value="&lt;span style=&quot;font-family: &amp;#34;verdana&amp;#34;&quot;&gt;Login System&lt;/span&gt;" style="text;html=1;strokeColor=none;fillColor=none;align=center;verticalAlign=middle;whiteSpace=wrap;rounded=0;" parent="1" vertex="1">
          <mxGeometry x="1613" y="535" width="120" height="30" as="geometry" />
        </mxCell>
        <mxCell id="yKrnhrEs9fii8439QQP5-117" value="Ext P : If&amp;nbsp; User Entered Wrong Details" style="text;html=1;strokeColor=none;fillColor=none;align=center;verticalAlign=middle;whiteSpace=wrap;rounded=0;" parent="1" vertex="1">
          <mxGeometry x="1605" y="570" width="140" height="30" as="geometry" />
        </mxCell>
        <mxCell id="yKrnhrEs9fii8439QQP5-118" value="" style="endArrow=none;html=1;rounded=0;exitX=0;exitY=0.5;exitDx=0;exitDy=0;entryX=1;entryY=0.5;entryDx=0;entryDy=0;" parent="1" edge="1">
          <mxGeometry width="50" height="50" relative="1" as="geometry">
            <mxPoint x="1595.000000000031" y="564.9999999999995" as="sourcePoint" />
            <mxPoint x="1744.9999999999682" y="564.9999999999995" as="targetPoint" />
          </mxGeometry>
        </mxCell>
        <mxCell id="yKrnhrEs9fii8439QQP5-119" value="Ask to Re-Enter Details" style="ellipse;whiteSpace=wrap;html=1;rounded=0;shadow=1;comic=0;labelBackgroundColor=none;strokeWidth=1;fontFamily=Verdana;fontSize=12;align=center;" parent="1" vertex="1">
          <mxGeometry x="1840" y="552" width="120" height="57" as="geometry" />
        </mxCell>
        <mxCell id="yKrnhrEs9fii8439QQP5-120" value="&amp;lt;exclude&amp;gt;" style="text;html=1;strokeColor=none;fillColor=none;align=center;verticalAlign=middle;whiteSpace=wrap;rounded=0;" parent="1" vertex="1">
          <mxGeometry x="1760" y="549" width="60" height="30" as="geometry" />
        </mxCell>
        <mxCell id="yKrnhrEs9fii8439QQP5-121" value="" style="endArrow=classic;html=1;rounded=0;dashed=1;entryX=1;entryY=0.25;entryDx=0;entryDy=0;exitX=0;exitY=0.5;exitDx=0;exitDy=0;" parent="1" source="yKrnhrEs9fii8439QQP5-119" target="yKrnhrEs9fii8439QQP5-117" edge="1">
          <mxGeometry width="50" height="50" relative="1" as="geometry">
            <mxPoint x="1790" y="580" as="sourcePoint" />
            <mxPoint x="2485" y="574.9999999999995" as="targetPoint" />
            <Array as="points" />
          </mxGeometry>
        </mxCell>
        <mxCell id="yKrnhrEs9fii8439QQP5-122" value="" style="endArrow=none;html=1;rounded=0;exitX=0.033;exitY=0.278;exitDx=0;exitDy=0;exitPerimeter=0;entryX=1;entryY=0.3333333333333333;entryDx=0;entryDy=0;entryPerimeter=0;" parent="1" source="yKrnhrEs9fii8439QQP5-2" target="yKrnhrEs9fii8439QQP5-73" edge="1">
          <mxGeometry width="50" height="50" relative="1" as="geometry">
            <mxPoint x="2846" y="460" as="sourcePoint" />
            <mxPoint x="2559.999999999968" y="529.9999999999995" as="targetPoint" />
          </mxGeometry>
        </mxCell>
        <mxCell id="yKrnhrEs9fii8439QQP5-123" value="" style="endArrow=none;html=1;rounded=0;entryX=0.004;entryY=0.653;entryDx=0;entryDy=0;entryPerimeter=0;" parent="1" target="yKrnhrEs9fii8439QQP5-2" edge="1">
          <mxGeometry width="50" height="50" relative="1" as="geometry">
            <mxPoint x="1470" y="770" as="sourcePoint" />
            <mxPoint x="1480" y="250" as="targetPoint" />
          </mxGeometry>
        </mxCell>
        <mxCell id="yKrnhrEs9fii8439QQP5-124" value="Manager" style="shape=umlActor;verticalLabelPosition=bottom;verticalAlign=top;html=1;outlineConnect=0;" parent="1" vertex="1">
          <mxGeometry x="1440" y="1050" width="30" height="60" as="geometry" />
        </mxCell>
        <mxCell id="yKrnhrEs9fii8439QQP5-125" value="" style="endArrow=classic;html=1;rounded=0;exitX=0.5;exitY=0;exitDx=0;exitDy=0;exitPerimeter=0;" parent="1" source="yKrnhrEs9fii8439QQP5-124" edge="1">
          <mxGeometry width="50" height="50" relative="1" as="geometry">
            <mxPoint x="1464.63" y="970" as="sourcePoint" />
            <mxPoint x="1455" y="830" as="targetPoint" />
          </mxGeometry>
        </mxCell>
        <mxCell id="yKrnhrEs9fii8439QQP5-126" value="" style="endArrow=none;html=1;rounded=0;exitX=1;exitY=0.3333333333333333;exitDx=0;exitDy=0;exitPerimeter=0;entryX=0;entryY=0.5;entryDx=0;entryDy=0;" parent="1" source="yKrnhrEs9fii8439QQP5-124" target="yKrnhrEs9fii8439QQP5-105" edge="1">
          <mxGeometry width="50" height="50" relative="1" as="geometry">
            <mxPoint x="1480" y="1080" as="sourcePoint" />
            <mxPoint x="1728.8000000000002" y="975.7599999999998" as="targetPoint" />
            <Array as="points">
              <mxPoint x="1720" y="940" />
            </Array>
          </mxGeometry>
        </mxCell>
        <mxCell id="yKrnhrEs9fii8439QQP5-127" value="" style="endArrow=none;html=1;rounded=0;exitX=1;exitY=0.3333333333333333;exitDx=0;exitDy=0;exitPerimeter=0;entryX=0;entryY=1;entryDx=0;entryDy=0;" parent="1" source="yKrnhrEs9fii8439QQP5-124" target="yKrnhrEs9fii8439QQP5-117" edge="1">
          <mxGeometry width="50" height="50" relative="1" as="geometry">
            <mxPoint x="1480" y="1080" as="sourcePoint" />
            <mxPoint x="1728.7999999999997" y="975.7599999999998" as="targetPoint" />
          </mxGeometry>
        </mxCell>
        <mxCell id="yKrnhrEs9fii8439QQP5-128" value="Delete Insurance&amp;nbsp;" style="ellipse;whiteSpace=wrap;html=1;rounded=0;shadow=1;comic=0;labelBackgroundColor=none;strokeWidth=1;fontFamily=Verdana;fontSize=12;align=center;" parent="1" vertex="1">
          <mxGeometry x="2050" y="1220" width="120" height="70" as="geometry" />
        </mxCell>
        <mxCell id="yKrnhrEs9fii8439QQP5-129" value="Manage Prices" style="ellipse;whiteSpace=wrap;html=1;rounded=0;shadow=1;comic=0;labelBackgroundColor=none;strokeWidth=1;fontFamily=Verdana;fontSize=12;align=center;" parent="1" vertex="1">
          <mxGeometry x="2040" y="1045" width="120" height="70" as="geometry" />
        </mxCell>
        <mxCell id="yKrnhrEs9fii8439QQP5-130" value="Add New Insurance&amp;nbsp;" style="ellipse;whiteSpace=wrap;html=1;rounded=0;shadow=1;comic=0;labelBackgroundColor=none;strokeWidth=1;fontFamily=Verdana;fontSize=12;align=center;" parent="1" vertex="1">
          <mxGeometry x="1863.75" y="1170" width="120" height="70" as="geometry" />
        </mxCell>
        <mxCell id="yKrnhrEs9fii8439QQP5-131" value="Update Insurance Details&amp;nbsp;" style="ellipse;whiteSpace=wrap;html=1;rounded=0;shadow=1;comic=0;labelBackgroundColor=none;strokeWidth=1;fontFamily=Verdana;fontSize=12;align=center;" parent="1" vertex="1">
          <mxGeometry x="1745" y="1130" width="120" height="70" as="geometry" />
        </mxCell>
        <mxCell id="yKrnhrEs9fii8439QQP5-132" value="" style="endArrow=classic;html=1;rounded=0;entryX=0.633;entryY=0.986;entryDx=0;entryDy=0;entryPerimeter=0;" parent="1" source="yKrnhrEs9fii8439QQP5-131" target="yKrnhrEs9fii8439QQP5-79" edge="1">
          <mxGeometry width="50" height="50" relative="1" as="geometry">
            <mxPoint x="1979.88" y="971.6799999999998" as="sourcePoint" />
            <mxPoint x="1973" y="930" as="targetPoint" />
          </mxGeometry>
        </mxCell>
        <mxCell id="yKrnhrEs9fii8439QQP5-133" value="" style="endArrow=classic;html=1;rounded=0;entryX=0.758;entryY=0.957;entryDx=0;entryDy=0;entryPerimeter=0;" parent="1" source="yKrnhrEs9fii8439QQP5-130" target="yKrnhrEs9fii8439QQP5-79" edge="1">
          <mxGeometry width="50" height="50" relative="1" as="geometry">
            <mxPoint x="1707.5583698516768" y="1080.3284812454049" as="sourcePoint" />
            <mxPoint x="1737.4416301483166" y="1059.6715187545992" as="targetPoint" />
          </mxGeometry>
        </mxCell>
        <mxCell id="yKrnhrEs9fii8439QQP5-134" value="" style="endArrow=classic;html=1;rounded=0;entryX=1;entryY=1;entryDx=0;entryDy=0;exitX=0.221;exitY=0.038;exitDx=0;exitDy=0;exitPerimeter=0;" parent="1" source="yKrnhrEs9fii8439QQP5-128" target="yKrnhrEs9fii8439QQP5-79" edge="1">
          <mxGeometry width="50" height="50" relative="1" as="geometry">
            <mxPoint x="1769.4017391438001" y="1140.0017399123071" as="sourcePoint" />
            <mxPoint x="1767.76" y="1072.6600000000003" as="targetPoint" />
          </mxGeometry>
        </mxCell>
        <mxCell id="yKrnhrEs9fii8439QQP5-135" value="" style="endArrow=classic;html=1;rounded=0;entryX=1;entryY=0.5;entryDx=0;entryDy=0;exitX=0;exitY=0.5;exitDx=0;exitDy=0;" parent="1" source="yKrnhrEs9fii8439QQP5-129" target="yKrnhrEs9fii8439QQP5-79" edge="1">
          <mxGeometry width="50" height="50" relative="1" as="geometry">
            <mxPoint x="1876.52" y="1132.6600000000003" as="sourcePoint" />
            <mxPoint x="1800.88" y="1073.5" as="targetPoint" />
          </mxGeometry>
        </mxCell>
        <mxCell id="yKrnhrEs9fii8439QQP5-136" value="View Reports" style="ellipse;whiteSpace=wrap;html=1;rounded=0;shadow=1;comic=0;labelBackgroundColor=none;strokeWidth=1;fontFamily=Verdana;fontSize=12;align=center;" parent="1" vertex="1">
          <mxGeometry x="2050" y="1130" width="120" height="70" as="geometry" />
        </mxCell>
        <mxCell id="yKrnhrEs9fii8439QQP5-137" value="" style="endArrow=classic;html=1;rounded=0;entryX=0.983;entryY=0.729;entryDx=0;entryDy=0;entryPerimeter=0;" parent="1" source="yKrnhrEs9fii8439QQP5-136" target="yKrnhrEs9fii8439QQP5-79" edge="1">
          <mxGeometry width="50" height="50" relative="1" as="geometry">
            <mxPoint x="1876.52" y="1132.6600000000003" as="sourcePoint" />
            <mxPoint x="1800.88" y="1073.5" as="targetPoint" />
          </mxGeometry>
        </mxCell>
        <mxCell id="N4j6fI9Da7W4ykGihxAp-1" value="Upload Document" style="ellipse;whiteSpace=wrap;html=1;rounded=0;shadow=1;comic=0;labelBackgroundColor=none;strokeWidth=1;fontFamily=Verdana;fontSize=12;align=center;fillColor=none;strokeColor=default;" parent="1" vertex="1">
          <mxGeometry x="1718" y="1230" width="120" height="70" as="geometry" />
        </mxCell>
        <mxCell id="N4j6fI9Da7W4ykGihxAp-2" value="Fill the Form" style="ellipse;whiteSpace=wrap;html=1;rounded=0;shadow=1;comic=0;labelBackgroundColor=none;strokeWidth=1;fontFamily=Verdana;fontSize=12;align=center;fillColor=none;strokeColor=#000000;" parent="1" vertex="1">
          <mxGeometry x="1755" y="1400" width="120" height="70" as="geometry" />
        </mxCell>
        <mxCell id="N4j6fI9Da7W4ykGihxAp-3" value="Accept Polices" style="ellipse;whiteSpace=wrap;html=1;rounded=0;shadow=1;comic=0;labelBackgroundColor=none;strokeWidth=1;fontFamily=Verdana;fontSize=12;align=center;fillColor=none;strokeColor=#000000;" parent="1" vertex="1">
          <mxGeometry x="1517" y="1380" width="120" height="70" as="geometry" />
        </mxCell>
        <mxCell id="N4j6fI9Da7W4ykGihxAp-4" style="edgeStyle=orthogonalEdgeStyle;rounded=0;orthogonalLoop=1;jettySize=auto;html=1;entryX=0.417;entryY=1.043;entryDx=0;entryDy=0;entryPerimeter=0;dashed=1;exitX=0.558;exitY=0.029;exitDx=0;exitDy=0;exitPerimeter=0;" parent="1" source="N4j6fI9Da7W4ykGihxAp-2" target="N4j6fI9Da7W4ykGihxAp-1" edge="1">
          <mxGeometry relative="1" as="geometry">
            <mxPoint x="2000.0000000000005" y="1410" as="sourcePoint" />
            <mxPoint x="1939.96" y="1320" as="targetPoint" />
          </mxGeometry>
        </mxCell>
        <mxCell id="N4j6fI9Da7W4ykGihxAp-5" value="" style="edgeStyle=orthogonalEdgeStyle;rounded=0;orthogonalLoop=1;jettySize=auto;html=1;dashed=1;entryX=-0.017;entryY=0.6;entryDx=0;entryDy=0;entryPerimeter=0;exitX=1;exitY=0.5;exitDx=0;exitDy=0;" parent="1" source="N4j6fI9Da7W4ykGihxAp-3" target="N4j6fI9Da7W4ykGihxAp-2" edge="1">
          <mxGeometry relative="1" as="geometry">
            <mxPoint x="1635" y="1360.0000000000005" as="sourcePoint" />
            <mxPoint x="1765" y="1390.0000000000005" as="targetPoint" />
          </mxGeometry>
        </mxCell>
        <mxCell id="N4j6fI9Da7W4ykGihxAp-6" value="&amp;lt;Include&amp;gt;" style="text;html=1;strokeColor=none;fillColor=none;align=center;verticalAlign=middle;whiteSpace=wrap;rounded=0;" parent="1" vertex="1">
          <mxGeometry x="1643" y="1390" width="60" height="30" as="geometry" />
        </mxCell>
        <mxCell id="N4j6fI9Da7W4ykGihxAp-7" value="&amp;lt;Include&amp;gt;" style="text;html=1;strokeColor=none;fillColor=none;align=center;verticalAlign=middle;whiteSpace=wrap;rounded=0;" parent="1" vertex="1">
          <mxGeometry x="1815" y="1327" width="60" height="30" as="geometry" />
        </mxCell>
        <mxCell id="N4j6fI9Da7W4ykGihxAp-8" value="" style="endArrow=classic;html=1;rounded=0;exitX=0.5;exitY=0;exitDx=0;exitDy=0;entryX=0.593;entryY=1.027;entryDx=0;entryDy=0;entryPerimeter=0;" parent="1" source="N4j6fI9Da7W4ykGihxAp-3" edge="1">
          <mxGeometry width="50" height="50" relative="1" as="geometry">
            <mxPoint x="1575" y="1325" as="sourcePoint" />
            <mxPoint x="1576.1599999999999" y="1236.8899999999994" as="targetPoint" />
          </mxGeometry>
        </mxCell>
        <mxCell id="N4j6fI9Da7W4ykGihxAp-9" value="" style="endArrow=classic;html=1;rounded=0;entryX=1;entryY=1;entryDx=0;entryDy=0;exitX=0.342;exitY=0.029;exitDx=0;exitDy=0;exitPerimeter=0;" parent="1" source="N4j6fI9Da7W4ykGihxAp-2" edge="1">
          <mxGeometry width="50" height="50" relative="1" as="geometry">
            <mxPoint x="1782.1384851174762" y="1365.507705781415" as="sourcePoint" />
            <mxPoint x="1607.861514882507" y="1224.4922942185758" as="targetPoint" />
          </mxGeometry>
        </mxCell>
        <mxCell id="N4j6fI9Da7W4ykGihxAp-10" value="" style="endArrow=classic;html=1;rounded=0;exitX=0;exitY=0;exitDx=0;exitDy=0;entryX=1;entryY=0.5;entryDx=0;entryDy=0;" parent="1" source="N4j6fI9Da7W4ykGihxAp-1" edge="1">
          <mxGeometry width="50" height="50" relative="1" as="geometry">
            <mxPoint x="1702.08" y="1216.63" as="sourcePoint" />
            <mxPoint x="1624.9999999999995" y="1200" as="targetPoint" />
          </mxGeometry>
        </mxCell>
        <mxCell id="N4j6fI9Da7W4ykGihxAp-11" style="edgeStyle=orthogonalEdgeStyle;rounded=0;orthogonalLoop=1;jettySize=auto;html=1;dashed=1;" parent="1" source="N4j6fI9Da7W4ykGihxAp-12" edge="1">
          <mxGeometry relative="1" as="geometry">
            <Array as="points">
              <mxPoint x="2230" y="1345" />
              <mxPoint x="2230" y="885" />
            </Array>
            <mxPoint x="2210" y="885" as="targetPoint" />
          </mxGeometry>
        </mxCell>
        <mxCell id="N4j6fI9Da7W4ykGihxAp-12" value="Varification" style="ellipse;whiteSpace=wrap;html=1;rounded=0;shadow=1;comic=0;labelBackgroundColor=none;strokeWidth=1;fontFamily=Verdana;fontSize=12;align=center;fillColor=none;strokeColor=#000000;" parent="1" vertex="1">
          <mxGeometry x="2070" y="1310" width="120" height="70" as="geometry" />
        </mxCell>
        <mxCell id="N4j6fI9Da7W4ykGihxAp-13" value="&amp;lt;Include&amp;gt;" style="text;html=1;strokeColor=none;fillColor=none;align=center;verticalAlign=middle;whiteSpace=wrap;rounded=0;" parent="1" vertex="1">
          <mxGeometry x="1980" y="1320" width="60" height="30" as="geometry" />
        </mxCell>
        <mxCell id="N4j6fI9Da7W4ykGihxAp-14" style="edgeStyle=orthogonalEdgeStyle;rounded=0;orthogonalLoop=1;jettySize=auto;html=1;entryX=0;entryY=0.5;entryDx=0;entryDy=0;dashed=1;exitX=1;exitY=0.5;exitDx=0;exitDy=0;" parent="1" source="N4j6fI9Da7W4ykGihxAp-1" target="N4j6fI9Da7W4ykGihxAp-12" edge="1">
          <mxGeometry relative="1" as="geometry">
            <mxPoint x="1896.25" y="1290" as="sourcePoint" />
            <mxPoint x="2056.2499999999995" y="1290" as="targetPoint" />
          </mxGeometry>
        </mxCell>
        <mxCell id="N4j6fI9Da7W4ykGihxAp-15" value="&amp;lt;Include&amp;gt;" style="text;html=1;strokeColor=none;fillColor=none;align=center;verticalAlign=middle;whiteSpace=wrap;rounded=0;" parent="1" vertex="1">
          <mxGeometry x="2240" y="1080" width="60" height="30" as="geometry" />
        </mxCell>
        <mxCell id="N4j6fI9Da7W4ykGihxAp-16" value="" style="endArrow=classic;html=1;rounded=0;dashed=1;exitX=0.292;exitY=0.057;exitDx=0;exitDy=0;exitPerimeter=0;entryX=0.358;entryY=1.014;entryDx=0;entryDy=0;entryPerimeter=0;" parent="1" source="N4j6fI9Da7W4ykGihxAp-1" target="yKrnhrEs9fii8439QQP5-79" edge="1">
          <mxGeometry width="50" height="50" relative="1" as="geometry">
            <mxPoint x="1757.7599999999998" y="1305.1" as="sourcePoint" />
            <mxPoint x="1757.7199999999998" y="1100" as="targetPoint" />
            <Array as="points">
              <mxPoint x="1753" y="1210" />
              <mxPoint x="1720" y="1210" />
              <mxPoint x="1720" y="1110" />
              <mxPoint x="1750" y="1110" />
            </Array>
          </mxGeometry>
        </mxCell>
        <mxCell id="N4j6fI9Da7W4ykGihxAp-17" value="&amp;lt;Include&amp;gt;" style="text;html=1;strokeColor=none;fillColor=none;align=center;verticalAlign=middle;whiteSpace=wrap;rounded=0;" parent="1" vertex="1">
          <mxGeometry x="1683.75" y="1085" width="60" height="30" as="geometry" />
        </mxCell>
        <mxCell id="m1cq5AeZM91na3DS7mYu-1" value="Ext P : If Visitor Registered&amp;nbsp;" style="text;html=1;strokeColor=none;fillColor=none;align=center;verticalAlign=middle;whiteSpace=wrap;rounded=0;" vertex="1" parent="1">
          <mxGeometry x="2600" y="-141.5" width="135" height="30" as="geometry" />
        </mxCell>
        <mxCell id="m1cq5AeZM91na3DS7mYu-6" value="View Visitor&#39;s Profile" style="ellipse;whiteSpace=wrap;html=1;rounded=0;shadow=1;comic=0;labelBackgroundColor=none;strokeWidth=1;fontFamily=Verdana;fontSize=12;align=center;" vertex="1" parent="1">
          <mxGeometry x="2404" y="-141.5" width="120" height="70" as="geometry" />
        </mxCell>
        <mxCell id="m1cq5AeZM91na3DS7mYu-7" value="Update Visitor&amp;nbsp;Profile" style="ellipse;whiteSpace=wrap;html=1;rounded=0;shadow=1;comic=0;labelBackgroundColor=none;strokeWidth=1;fontFamily=Verdana;fontSize=12;align=center;" vertex="1" parent="1">
          <mxGeometry x="2240" y="-85" width="120" height="70" as="geometry" />
        </mxCell>
        <mxCell id="m1cq5AeZM91na3DS7mYu-8" value="View Visitor&#39;s&amp;nbsp;Feedback" style="ellipse;whiteSpace=wrap;html=1;rounded=0;shadow=1;comic=0;labelBackgroundColor=none;strokeWidth=1;fontFamily=Verdana;fontSize=12;align=center;" vertex="1" parent="1">
          <mxGeometry x="2230" y="-256.5" width="120" height="70" as="geometry" />
        </mxCell>
        <mxCell id="m1cq5AeZM91na3DS7mYu-9" value="Delete Visitor&#39;s&amp;nbsp;Profile" style="ellipse;whiteSpace=wrap;html=1;rounded=0;shadow=1;comic=0;labelBackgroundColor=none;strokeWidth=1;fontFamily=Verdana;fontSize=12;align=center;" vertex="1" parent="1">
          <mxGeometry x="2190" y="-170" width="120" height="70" as="geometry" />
        </mxCell>
        <mxCell id="m1cq5AeZM91na3DS7mYu-10" value="" style="endArrow=classic;html=1;rounded=0;exitX=1;exitY=0.5;exitDx=0;exitDy=0;entryX=0.037;entryY=0.731;entryDx=0;entryDy=0;entryPerimeter=0;" edge="1" parent="1" source="m1cq5AeZM91na3DS7mYu-7" target="m1cq5AeZM91na3DS7mYu-6">
          <mxGeometry width="50" height="50" relative="1" as="geometry">
            <mxPoint x="2570.92" y="-339.3699999999999" as="sourcePoint" />
            <mxPoint x="2610" y="-400" as="targetPoint" />
          </mxGeometry>
        </mxCell>
        <mxCell id="m1cq5AeZM91na3DS7mYu-11" value="" style="endArrow=classic;html=1;rounded=0;exitX=1;exitY=0.5;exitDx=0;exitDy=0;" edge="1" parent="1" source="m1cq5AeZM91na3DS7mYu-9" target="m1cq5AeZM91na3DS7mYu-6">
          <mxGeometry width="50" height="50" relative="1" as="geometry">
            <mxPoint x="2149.88" y="-238.3199999999997" as="sourcePoint" />
            <mxPoint x="2150" y="-270" as="targetPoint" />
          </mxGeometry>
        </mxCell>
        <mxCell id="m1cq5AeZM91na3DS7mYu-12" value="" style="endArrow=classic;html=1;rounded=0;exitX=1;exitY=1;exitDx=0;exitDy=0;" edge="1" parent="1" source="m1cq5AeZM91na3DS7mYu-8" target="m1cq5AeZM91na3DS7mYu-6">
          <mxGeometry width="50" height="50" relative="1" as="geometry">
            <mxPoint x="2250" y="-230" as="sourcePoint" />
            <mxPoint x="2186.9170927568985" y="-277.40933067642345" as="targetPoint" />
          </mxGeometry>
        </mxCell>
        <mxCell id="m1cq5AeZM91na3DS7mYu-13" value="" style="endArrow=classic;html=1;rounded=0;entryX=0;entryY=1;entryDx=0;entryDy=0;" edge="1" parent="1" source="m1cq5AeZM91na3DS7mYu-6" target="yKrnhrEs9fii8439QQP5-10">
          <mxGeometry width="50" height="50" relative="1" as="geometry">
            <mxPoint x="2470" y="-90" as="sourcePoint" />
            <mxPoint x="2776.58" y="310" as="targetPoint" />
          </mxGeometry>
        </mxCell>
        <mxCell id="m1cq5AeZM91na3DS7mYu-14" value="&amp;lt;Include&amp;gt;" style="text;html=1;strokeColor=none;fillColor=none;align=center;verticalAlign=middle;whiteSpace=wrap;rounded=0;" vertex="1" parent="1">
          <mxGeometry x="2518" y="-220" width="60" height="30" as="geometry" />
        </mxCell>
      </root>
    </mxGraphModel>
  </diagram>
</mxfile>
